<?xml version="1.0" encoding="UTF-8" standalone="no"?>
<svg
   xmlns:osb="http://www.openswatchbook.org/uri/2009/osb"
   xmlns:dc="http://purl.org/dc/elements/1.1/"
   xmlns:cc="http://creativecommons.org/ns#"
   xmlns:rdf="http://www.w3.org/1999/02/22-rdf-syntax-ns#"
   xmlns:svg="http://www.w3.org/2000/svg"
   xmlns="http://www.w3.org/2000/svg"
   xmlns:xlink="http://www.w3.org/1999/xlink"
   xmlns:sodipodi="http://sodipodi.sourceforge.net/DTD/sodipodi-0.dtd"
   xmlns:inkscape="http://www.inkscape.org/namespaces/inkscape"
   width="240.44667mm"
   height="90.468872mm"
   viewBox="0 0 240.44667 90.468872"
   version="1.1"
   id="svg8"
   inkscape:version="1.0.2-2 (e86c870879, 2021-01-15)"
   sodipodi:docname="start.svg">
  <defs
     id="defs2">
    <linearGradient
       inkscape:collect="always"
       id="linearGradient3482"
       osb:paint="gradient">
      <stop
         style="stop-color:#ff0e00;stop-opacity:1;"
         offset="0"
         id="stop3478" />
      <stop
         style="stop-color:#ff0e00;stop-opacity:0;"
         offset="1"
         id="stop3480" />
    </linearGradient>
    <linearGradient
       id="linearGradient3450"
       osb:paint="solid">
      <stop
         style="stop-color:#1c00d7;stop-opacity:1;"
         offset="0"
         id="stop3448" />
    </linearGradient>
    <linearGradient
       inkscape:collect="always"
       id="linearGradient3376">
      <stop
         style="stop-color:#ff0e00;stop-opacity:1;"
         offset="0"
         id="stop3372" />
      <stop
         style="stop-color:#ff0e00;stop-opacity:0;"
         offset="1"
         id="stop3374" />
    </linearGradient>
    <linearGradient
       id="linearGradient3224"
       osb:paint="solid">
      <stop
         style="stop-color:#ff0e00;stop-opacity:1;"
         offset="0"
         id="stop3222" />
    </linearGradient>
    <linearGradient
       id="linearGradient1050"
       osb:paint="solid">
      <stop
         style="stop-color:#ff1b00;stop-opacity:1;"
         offset="0"
         id="stop1048" />
    </linearGradient>
    <linearGradient
       inkscape:collect="always"
       xlink:href="#linearGradient3376"
       id="linearGradient3396"
       x1="184.92598"
       y1="151.04137"
       x2="208.87807"
       y2="151.04137"
       gradientUnits="userSpaceOnUse" />
    <linearGradient
       inkscape:collect="always"
       xlink:href="#linearGradient3376"
       id="linearGradient3398"
       x1="161.25438"
       y1="151.84601"
       x2="188.72102"
       y2="151.84601"
       gradientUnits="userSpaceOnUse" />
    <linearGradient
       inkscape:collect="always"
       xlink:href="#linearGradient3376"
       id="linearGradient3400"
       x1="140.51315"
       y1="151.05713"
       x2="163.4575"
       y2="151.05713"
       gradientUnits="userSpaceOnUse" />
    <linearGradient
       inkscape:collect="always"
       xlink:href="#linearGradient3376"
       id="linearGradient3402"
       x1="123.31132"
       y1="151.42442"
       x2="144.34389"
       y2="151.42442"
       gradientUnits="userSpaceOnUse" />
    <linearGradient
       inkscape:collect="always"
       xlink:href="#linearGradient3376"
       id="linearGradient3404"
       x1="94.371246"
       y1="152.26672"
       x2="117.56848"
       y2="152.26672"
       gradientUnits="userSpaceOnUse" />
    <linearGradient
       inkscape:collect="always"
       xlink:href="#linearGradient3376"
       id="linearGradient3406"
       x1="74.631119"
       y1="153.54887"
       x2="95.450806"
       y2="153.54887"
       gradientUnits="userSpaceOnUse" />
    <linearGradient
       inkscape:collect="always"
       xlink:href="#linearGradient3376"
       id="linearGradient3408"
       x1="53.791962"
       y1="152.55623"
       x2="79.470421"
       y2="152.55623"
       gradientUnits="userSpaceOnUse" />
    <linearGradient
       inkscape:collect="always"
       xlink:href="#linearGradient3376"
       id="linearGradient3410"
       x1="37.152596"
       y1="151.19765"
       x2="60.349827"
       y2="151.19765"
       gradientUnits="userSpaceOnUse" />
    <linearGradient
       inkscape:collect="always"
       xlink:href="#linearGradient3376"
       id="linearGradient3412"
       x1="17.939978"
       y1="152.03062"
       x2="41.244514"
       y2="152.03062"
       gradientUnits="userSpaceOnUse" />
    <linearGradient
       inkscape:collect="always"
       xlink:href="#linearGradient3450"
       id="linearGradient3452"
       x1="6.3785256"
       y1="152.1211"
       x2="222.00203"
       y2="152.1211"
       gradientUnits="userSpaceOnUse" />
  </defs>
  <sodipodi:namedview
     id="base"
     pagecolor="#ffffff"
     bordercolor="#666666"
     borderopacity="1.0"
     inkscape:pageopacity="0.0"
     inkscape:pageshadow="2"
     inkscape:zoom="0.98994949"
     inkscape:cx="518.69952"
     inkscape:cy="57.905114"
     inkscape:document-units="mm"
     inkscape:current-layer="layer1"
     inkscape:document-rotation="0"
     showgrid="false"
     inkscape:window-width="1920"
     inkscape:window-height="1017"
     inkscape:window-x="1912"
     inkscape:window-y="-8"
     inkscape:window-maximized="1" />
  <metadata
     id="metadata5">
    <rdf:RDF>
      <cc:Work
         rdf:about="">
        <dc:format>image/svg+xml</dc:format>
        <dc:type
           rdf:resource="http://purl.org/dc/dcmitype/StillImage" />
        <dc:title></dc:title>
      </cc:Work>
    </rdf:RDF>
  </metadata>
  <g
     inkscape:label="Calque 1"
     inkscape:groupmode="layer"
     id="layer1"
     transform="translate(7.6402723,-105.20624)">
    <rect
       style="opacity:0;fill:#ff0000;fill-opacity:1;stroke:#0000ae;stroke-width:3.29901"
       id="rect845"
       width="181.42857"
       height="202.59525"
       x="15.119047"
       y="37.041668"
       rx="81.642853" />
    <rect
       style="opacity:1;fill:#ffda00;fill-opacity:1;stroke:#ff0e00;stroke-width:0.803849;stroke-linecap:round;stroke-linejoin:round;stroke-miterlimit:4;stroke-dasharray:none;stroke-dashoffset:0;stroke-opacity:1;paint-order:markers fill stroke"
       id="rect861"
       width="220.78873"
       height="69.783226"
       x="3.548022"
       y="117.03224"
       rx="19.162886"
       ry="14.64764" />
    <rect
       style="opacity:1;fill:#ffda00;fill-opacity:1;stroke:url(#linearGradient3452);stroke-width:2.21408;stroke-miterlimit:4;stroke-dasharray:none;stroke-opacity:1"
       id="rect863"
       width="213.40942"
       height="63.104542"
       x="7.4855657"
       y="120.56883"
       rx="17.074316"
       ry="14.554598" />
    <path
       d="m 18.821995,142.53475 q 0.292803,-4.38638 4.781342,-5.65084 2.364386,-0.66607 5.231791,-0.51541 2.862689,0.1339 6.887736,0.6637 -0.04218,0.91605 -0.0086,4.52331 0.0336,3.60725 -0.04226,3.62862 -0.138908,-0.10554 -1.408658,-0.54353 -1.26182,-0.45829 -2.711781,-0.80933 -1.437317,-0.3546 -2.254271,-0.25105 -0.368208,0.0494 -1.802646,-0.0528 -1.421818,-0.1058 -2.054007,0.0723 -0.581613,0.16384 -0.800108,0.5509 -0.381522,0.6319 -0.197451,1.28531 0.169908,0.60314 0.802746,1.20245 0.628121,0.58258 1.521755,1.09034 0.893636,0.50776 1.92956,0.93928 1.035922,0.43151 2.008797,0.73611 2.005771,0.62848 3.646037,1.7035 1.648194,1.05472 2.740057,2.26614 1.091866,1.21143 1.818578,2.57998 0.734638,1.34824 1.098056,2.63829 0.429498,1.52462 0.366235,2.89871 -0.162425,2.37853 -1.380645,3.77056 -1.2135,1.40879 -3.287078,1.99293 -1.188515,0.33482 -2.774875,0.42004 -1.568997,0.0984 -3.101403,-0.0124 -1.515045,-0.0976 -3.236933,-0.29972 -1.713967,-0.22243 -3.018785,-0.39735 0.04334,-0.5728 0.04374,-2.21852 -0.01698,-1.65891 -0.02975,-2.86691 -0.02542,-1.20444 -0.01325,-2.13013 -4.75e-4,-0.92213 0.0501,-0.93637 0.462578,0.2856 2.853722,1.02251 2.386425,0.72016 3.53363,0.57782 0.418782,-0.0636 1.491446,0.0139 1.072683,0.0776 1.459749,0.0951 0.399707,0.014 0.892813,-0.12493 0.581613,-0.16384 0.800109,-0.5509 0.413219,-0.71317 0.23859,-1.33306 -0.38702,-1.37383 -3.54874,-2.47233 -1.934626,-0.66661 -4.486068,-2.11787 -2.543518,-1.47158 -4.781202,-3.69841 -2.229761,-2.24715 -2.975477,-4.89427 -0.382302,-1.35708 -0.282621,-2.79567 z"
       style="font-style:normal;font-variant:normal;font-weight:normal;font-stretch:normal;font-size:30.9678px;line-height:1.25;font-family:'Pokemon Solid';-inkscape-font-specification:'Pokemon Solid';mix-blend-mode:normal;fill:#1c00d7;fill-opacity:1;stroke:url(#linearGradient3412);stroke-width:1.723;stroke-miterlimit:4;stroke-dasharray:none;stroke-opacity:1"
       id="path871"
       inkscape:transform-center-x="-0.2672152"
       inkscape:transform-center-y="1.336345" />
    <path
       d="m 52.780978,143.67248 0.748747,23.39378 h -0.80129 q -0.788154,0 -1.996657,-0.0696 -1.208502,-0.0523 -2.193695,-0.22628 -0.985193,-0.15666 -1.458085,-0.41775 l -0.866969,-22.40163 -8.183664,0.15666 0.118223,-6.858 20.978029,-1.84505 0.328397,7.55425 z"
       style="font-style:normal;font-variant:normal;font-weight:normal;font-stretch:normal;font-size:30.9678px;line-height:1.25;font-family:'Pokemon Solid';-inkscape-font-specification:'Pokemon Solid';mix-blend-mode:normal;fill:#1c00d7;fill-opacity:1;stroke:url(#linearGradient3410);stroke-width:1.723;stroke-miterlimit:4;stroke-dasharray:none;stroke-opacity:1"
       id="path873" />
    <path
       d="m 67.306655,135.98682 11.194951,33.88049 -4.760417,0.58686 -5.318456,-15.58759 -2.983801,-0.58686 -4.657921,12.42427 -5.887883,0.35784 z m -1.674118,14.88624 2.699088,0.47234 -1.116079,-5.51076 z"
       style="font-style:normal;font-variant:normal;font-weight:normal;font-stretch:normal;font-size:30.9678px;line-height:1.25;font-family:'Pokemon Solid';-inkscape-font-specification:'Pokemon Solid';mix-blend-mode:normal;fill:#1c00d7;fill-opacity:1;stroke:url(#linearGradient3408);stroke-width:1.45484;stroke-miterlimit:4;stroke-dasharray:none;stroke-opacity:1"
       id="path875" />
    <path
       d="m 83.439,144.10105 0.32249,5.4428 q 0.93942,-0.17577 2.2246,-1.90517 1.299076,-1.72821 1.394896,-2.82486 0.04951,-0.5666 -0.274388,-0.7054 -1.375753,-0.59904 -1.862072,-0.64153 -0.903166,-0.0789 -1.805526,0.63416 z m 2.620429,8.62714 q -0.557704,0.61427 -1.20357,1.2761 -0.644268,0.64355 -0.871856,0.84469 l 0.656022,13.48331 -4.923557,1.22735 -0.769166,-24.04618 q -0.08337,-0.007 -0.348327,0.30108 -0.251065,0.30957 -0.69282,0.87873 -0.42786,0.57038 -0.489829,0.63864 -0.04169,-0.004 -0.209226,-0.81022 -0.153646,-0.80536 -0.42133,-2.22845 -0.252195,-1.44014 -0.5761,-3.18121 -0.336203,-1.76059 -0.464613,-2.21381 1.745156,-0.5842 3.272308,-1.07695 1.541046,-0.49153 3.228547,-0.89659 1.689098,-0.42335 3.204594,-0.62244 1.529388,-0.19788 2.974453,-0.0716 1.125486,0.0983 2.049568,0.4185 0.925688,0.30188 1.713065,0.90478 0.801273,0.60411 1.376081,1.55675 0.5903,0.9356 0.901744,2.17834 0.107009,0.37769 0.0575,0.94429 -0.07825,0.8956 -0.589321,1.93755 -0.495576,1.02487 -1.281826,2.17171 -0.77076,1.12977 -1.702344,2.33754 0.754642,0.17642 1.331204,1.58969 0.592056,1.39617 0.765829,3.25307 l 0.97658,16.38438 -4.315538,0.83845 -1.775606,-15.09134 q -0.05619,-0.318 -0.238132,-0.96007 -0.18032,-0.66035 -0.528975,-1.31699 -0.34865,-0.65665 -0.80718,-0.69672 -0.09726,-0.008 -0.298182,0.0476 z"
       style="font-style:normal;font-variant:normal;font-weight:normal;font-stretch:normal;font-size:30.9678px;line-height:1.25;font-family:'Pokemon Solid';-inkscape-font-specification:'Pokemon Solid';mix-blend-mode:normal;fill:#1c00d7;fill-opacity:1;stroke:url(#linearGradient3406);stroke-width:1.82281;stroke-miterlimit:4;stroke-dasharray:none;stroke-opacity:1"
       id="path877" />
    <path
       d="m 109.99963,144.74156 0.74875,23.39378 h -0.80129 q -0.78815,0 -1.99666,-0.0696 -1.20851,-0.0523 -2.19369,-0.22628 -0.9852,-0.15666 -1.45809,-0.41775 l -0.86697,-22.40163 -8.183663,0.15666 0.118223,-6.858 20.97803,-1.84505 0.3284,7.55425 z"
       style="font-style:normal;font-variant:normal;font-weight:normal;font-stretch:normal;font-size:30.9678px;line-height:1.25;font-family:'Pokemon Solid';-inkscape-font-specification:'Pokemon Solid';mix-blend-mode:normal;fill:#1c00d7;fill-opacity:1;stroke:url(#linearGradient3404);stroke-width:1.723;stroke-miterlimit:4;stroke-dasharray:none;stroke-opacity:1"
       id="path879" />
    <path
       d="m 135.18064,151.8067 -0.97207,-0.57441 1.51064,-4.56039 7.42178,3.7075 -1.72081,19.25113 -6.67304,-0.71365 q 0.35468,-1.42731 0.99834,-4.09044 0.64366,-2.64572 0.82756,-3.46381 -0.85383,0.557 -3.44161,0.557 -2.48268,0 -4.37425,-1.23584 -1.87843,-1.25323 -3.08693,-4.26448 -1.20851,-3.02866 -1.47123,-8.18086 -0.0262,-0.50478 -0.0262,-1.53173 0,-2.5761 0.45976,-4.94334 0.44662,-2.36722 1.47122,-4.26448 1.03774,-1.91467 2.8505,-3.11569 1.81274,-1.20102 4.38738,-1.25324 1.70767,0 3.36279,0.53959 1.65513,0.52218 3.03439,1.47951 1.37928,0.93994 2.36446,2.31502 0.99834,1.35766 1.30046,2.92421 l -5.88489,5.09999 q -0.59111,-1.94949 -3.9539,-1.94949 -0.76188,0 -1.56317,1.44472 -0.80129,1.4447 -0.80129,3.25493 0.0657,1.37508 0.61739,2.64572 0.5517,1.25325 1.95725,1.34027 0.11822,0 0.40721,-0.087 0.30212,-0.10441 0.52543,-0.17406 0.23645,-0.087 0.4729,-0.15666 z"
       style="font-style:normal;font-variant:normal;font-weight:normal;font-stretch:normal;font-size:30.9678px;line-height:1.25;font-family:'Pokemon Solid';-inkscape-font-specification:'Pokemon Solid';mix-blend-mode:normal;fill:#1c00d7;fill-opacity:1;stroke:url(#linearGradient3402);stroke-width:1.723;stroke-miterlimit:4;stroke-dasharray:none;stroke-opacity:1"
       id="path881" />
    <path
       d="m 152.58714,135.24767 9.99362,32.40301 -4.24958,0.56126 -4.74773,-14.90783 -2.6636,-0.56127 -4.15808,11.88246 -5.25605,0.34224 z m -1.49446,14.23707 2.40944,0.45174 -0.99631,-5.27044 z"
       style="font-style:normal;font-variant:normal;font-weight:normal;font-stretch:normal;font-size:30.9678px;line-height:1.25;font-family:'Pokemon Solid';-inkscape-font-specification:'Pokemon Solid';mix-blend-mode:normal;fill:#1c00d7;fill-opacity:1;stroke:url(#linearGradient3400);stroke-width:1.34426;stroke-miterlimit:4;stroke-dasharray:none;stroke-opacity:1"
       id="path883" />
    <path
       d="m 164.56597,137.30491 7.86882,-0.63411 2.09514,4.09282 1.83926,-5.66847 5.10192,-0.15372 6.02955,33.68417 -9.30822,-1.09527 -1.69531,-11.49065 -1.83925,4.24655 -2.479,-5.34182 -0.79968,9.74207 -9.03633,0.78783 z"
       style="font-style:normal;font-variant:normal;font-weight:normal;font-stretch:normal;font-size:30.9678px;line-height:1.25;font-family:'Pokemon Solid';-inkscape-font-specification:'Pokemon Solid';mix-blend-mode:normal;fill:#1c00d7;fill-opacity:1;stroke:url(#linearGradient3398);stroke-width:1.99755;stroke-miterlimit:4;stroke-dasharray:none;stroke-opacity:1"
       id="path885" />
    <path
       d="m 194.22568,161.94548 13.77955,0.85289 -0.10508,7.55424 -19.16528,-1.27064 -1.064,-26.24837 -1.83903,0.43515 0.3284,-8.26789 15.9207,-3.1505 0.32841,7.57164 -9.03751,1.98429 0.21018,5.43071 8.93241,-2.00171 0.3284,6.2662 -9.0375,2.28019 z"
       style="font-style:normal;font-variant:normal;font-weight:normal;font-stretch:normal;font-size:30.9678px;line-height:1.25;font-family:'Pokemon Solid';-inkscape-font-specification:'Pokemon Solid';mix-blend-mode:normal;fill:#1c00d7;fill-opacity:1;stroke:url(#linearGradient3396);stroke-width:1.723;stroke-miterlimit:4;stroke-dasharray:none;stroke-opacity:1"
       id="path887" />
  </g>
</svg>
